<svg width="60" height="59" viewBox="0 0 60 59" xmlns="http://www.w3.org/2000/svg">
<path d="M29.6632 57.9794C45.4934 57.9794 58.3263 45.2241 58.3263 29.4897C58.3263 13.7553 45.4934 1 29.6632 1C13.8329 1 1 13.7553 1 29.4897C1 45.2241 13.8329 57.9794 29.6632 57.9794Z" fill="transparent" stroke="currentColor" stroke-width="2" stroke-miterlimit="10" stroke-linejoin="round"/>
<path d="M18.9772 21.6822C20.7013 21.6822 22.0989 20.2931 22.0989 18.5794C22.0989 16.8658 20.7013 15.4766 18.9772 15.4766C17.2531 15.4766 15.8555 16.8658 15.8555 18.5794C15.8555 20.2931 17.2531 21.6822 18.9772 21.6822Z" fill="currentColor"/>
<path d="M29.6647 21.6822C31.3888 21.6822 32.7864 20.2931 32.7864 18.5794C32.7864 16.8658 31.3888 15.4766 29.6647 15.4766C27.9406 15.4766 26.543 16.8658 26.543 18.5794C26.543 20.2931 27.9406 21.6822 29.6647 21.6822Z" fill="currentColor"/>
<path d="M40.3561 21.6822C42.0802 21.6822 43.4778 20.2931 43.4778 18.5794C43.4778 16.8658 42.0802 15.4766 40.3561 15.4766C38.632 15.4766 37.2344 16.8658 37.2344 18.5794C37.2344 20.2931 38.632 21.6822 40.3561 21.6822Z" fill="currentColor"/>
<path d="M18.9772 32.1666C20.7013 32.1666 22.0989 30.7774 22.0989 29.0638C22.0989 27.3501 20.7013 25.9609 18.9772 25.9609C17.2531 25.9609 15.8555 27.3501 15.8555 29.0638C15.8555 30.7774 17.2531 32.1666 18.9772 32.1666Z" fill="currentColor"/>
<path d="M29.6647 32.1666C31.3888 32.1666 32.7864 30.7774 32.7864 29.0638C32.7864 27.3501 31.3888 25.9609 29.6647 25.9609C27.9406 25.9609 26.543 27.3501 26.543 29.0638C26.543 30.7774 27.9406 32.1666 29.6647 32.1666Z" fill="currentColor"/>
<path d="M40.3561 32.1666C42.0802 32.1666 43.4778 30.7774 43.4778 29.0638C43.4778 27.3501 42.0802 25.9609 40.3561 25.9609C38.632 25.9609 37.2344 27.3501 37.2344 29.0638C37.2344 30.7774 38.632 32.1666 40.3561 32.1666Z" fill="currentColor"/>
<path d="M18.9772 43.4947C20.7013 43.4947 22.0989 42.1056 22.0989 40.3919C22.0989 38.6783 20.7013 37.2891 18.9772 37.2891C17.2531 37.2891 15.8555 38.6783 15.8555 40.3919C15.8555 42.1056 17.2531 43.4947 18.9772 43.4947Z" fill="currentColor"/>
<path d="M29.6647 43.4947C31.3888 43.4947 32.7864 42.1056 32.7864 40.3919C32.7864 38.6783 31.3888 37.2891 29.6647 37.2891C27.9406 37.2891 26.543 38.6783 26.543 40.3919C26.543 42.1056 27.9406 43.4947 29.6647 43.4947Z" fill="currentColor"/>
<path d="M40.3561 43.4947C42.0802 43.4947 43.4778 42.1056 43.4778 40.3919C43.4778 38.6783 42.0802 37.2891 40.3561 37.2891C38.632 37.2891 37.2344 38.6783 37.2344 40.3919C37.2344 42.1056 38.632 43.4947 40.3561 43.4947Z" fill="currentColor"/>
</svg>
