<svg width="48" height="48" viewBox="0 0 48 48" fill="transparent" xmlns="http://www.w3.org/2000/svg">
<path d="M25.062 1.47166C32.2772 1.70391 39.1885 4.95553 43.7455 12.62C48.3784 20.4394 47.2392 30.2717 40.8594 36.9297C33.7961 44.362 25.2898 45.833 15.948 42.891C15.1126 42.6588 14.4291 42.6588 13.5936 43.0459C10.1759 44.9039 6.45437 45.9104 2.6569 46.5297C2.27715 46.5297 1.82146 46.4523 1.59361 46.1426C1.44171 45.9878 1.59361 45.3684 1.74551 45.0588C3.72019 42.3491 4.40374 39.1749 4.78348 35.9233C4.85943 35.1491 4.78348 34.0652 4.40374 33.4459C-1.52031 23.8459 1.82146 11.6136 10.5556 5.6523C14.6569 2.86521 19.062 1.39424 25.062 1.47166Z" fill="none" stroke="currentColor" stroke-width="2.5" stroke-miterlimit="10"/>
<path d="M16.176 26.6317C17.6022 26.6317 18.7583 25.4532 18.7583 23.9994C18.7583 22.5457 17.6022 21.3672 16.176 21.3672C14.7499 21.3672 13.5938 22.5457 13.5938 23.9994C13.5938 25.4532 14.7499 26.6317 16.176 26.6317Z" fill="currentColor"/>
<path d="M24.0002 26.6317C25.4264 26.6317 26.5825 25.4532 26.5825 23.9994C26.5825 22.5457 25.4264 21.3672 24.0002 21.3672C22.5741 21.3672 21.418 22.5457 21.418 23.9994C21.418 25.4532 22.5741 26.6317 24.0002 26.6317Z" fill="currentColor"/>
<path d="M31.8206 26.6317C33.2467 26.6317 34.4028 25.4532 34.4028 23.9994C34.4028 22.5457 33.2467 21.3672 31.8206 21.3672C30.3944 21.3672 29.2383 22.5457 29.2383 23.9994C29.2383 25.4532 30.3944 26.6317 31.8206 26.6317Z" fill="currentColor"/>
</svg>
