<?xml version="1.0" encoding="UTF-8"?>
<svg width="67" height="63" viewBox="0 0 67 63" xmlns="http://www.w3.org/2000/svg">
<path d="M29.4451 6.1738C44.3134 6.1738 56.4607 18.1793 56.4607 32.9813C56.4607 47.7832 44.362 59.7888 29.4451 59.7888C14.5282 59.7888 2.47805 47.735 2.47805 32.9331C2.47805 18.1311 14.5768 6.1738 29.4451 6.1738ZM29.4451 3.71484C13.1677 3.71484 0 16.7811 0 32.9331C0 49.0851 13.1677 62.1513 29.4451 62.1513C45.7225 62.1513 58.8901 49.0851 58.8901 32.9331C58.8901 16.7811 45.7225 3.71484 29.4451 3.71484Z" fill="#E17663" data-color="primary"/>
<path d="M29.4439 60.9434C44.9546 60.9434 57.5285 48.4664 57.5285 33.0752C57.5285 17.6841 44.9546 5.20703 29.4439 5.20703C13.9333 5.20703 1.35938 17.6841 1.35938 33.0752C1.35938 48.4664 13.9333 60.9434 29.4439 60.9434Z" fill="#E17663" data-color="primary"/>
<path d="M20.458 29.7436C21.8803 29.7436 23.0333 28.5995 23.0333 27.1882C23.0333 25.7769 21.8803 24.6328 20.458 24.6328C19.0358 24.6328 17.8828 25.7769 17.8828 27.1882C17.8828 28.5995 19.0358 29.7436 20.458 29.7436Z" fill="white"/>
<path d="M38.4815 29.7436C39.9037 29.7436 41.0567 28.5995 41.0567 27.1882C41.0567 25.7769 39.9037 24.6328 38.4815 24.6328C37.0592 24.6328 35.9062 25.7769 35.9062 27.1882C35.9062 28.5995 37.0592 29.7436 38.4815 29.7436Z" fill="white"/>
<path d="M39.2086 36.3047C39.2086 41.6565 34.8356 45.9959 29.4422 45.9959C24.0488 45.9959 19.6758 41.6565 19.6758 36.3047H39.2086Z" fill="white"/>
<path d="M44.6074 0.0482149H60.3989C63.9459 0.0482149 66.8126 2.89289 66.8126 6.41258C66.8126 9.93227 63.9459 12.7769 60.3989 12.7769H53.4506C52.0415 12.7769 50.8754 13.5002 49.855 14.4163C48.3002 15.8145 47.2312 16.9716 43.7814 17.0681C43.7814 17.0681 47.2798 16.4413 47.5227 12.7287H44.656C41.1089 12.7287 38.2422 9.88405 38.2422 6.36436C38.2422 2.84468 41.1089 0 44.656 0L44.6074 0.0482149Z" fill="#013C70" data-color="secondary"/>
</svg>
