<svg width="22" height="28" viewBox="0 0 22 28" fill="currentColor" xmlns="http://www.w3.org/2000/svg">
<path d="M15.8097 8.79136C15.2865 8.15202 15.7709 7.31895 16.7057 7.60471C17.5001 7.84204 19.2293 9.63896 19.7573 10.3413C26.1267 18.8561 17.9603 30.5772 7.70618 27.4968C-0.387611 25.0654 -2.72711 14.2209 3.69077 8.70902C4.17998 8.29248 5.18747 7.34317 5.76386 8.01641C6.47588 8.83979 4.90169 9.58568 4.37857 10.0942C-0.760575 15.0588 1.18658 23.7237 7.91446 26.0147C17.8924 29.4099 25.3323 16.2454 16.6912 9.35804C16.4829 9.19336 15.9162 8.92698 15.8097 8.7962V8.79136Z" fill="currentColor"/>
<path d="M10.6513 11.3984C12.1722 10.9431 12.3272 13.9412 13.1652 14.5031C13.8675 14.9729 16.5267 14.6193 16.7883 15.5057C17.1322 16.6633 15.0009 17.8015 14.4439 18.6491C14.4003 19.5693 15.0106 21.0078 14.9573 21.8458C14.9477 22.0104 14.8702 22.1218 14.783 22.2526C13.9402 23.5361 11.901 21.2113 10.971 21.2113C10.2444 21.2113 9.02384 22.427 8.28275 22.582C5.91419 23.076 7.66276 19.7437 7.41573 18.6394C7.19777 17.661 4.73718 16.8909 5.14889 15.5105C5.42014 14.5999 8.0551 14.9584 8.77196 14.5079C9.21274 14.0139 10.1427 11.5486 10.6416 11.3984H10.6513Z" fill="currentColor"/>
<path d="M11.8428 3.03202V8.06921C11.8428 8.60199 10.5835 8.57293 10.225 8.35982V3.03202C9.35318 3.32263 8.63631 5.2697 7.56102 4.95003C6.9265 4.76114 6.97978 3.8651 7.33336 3.43403C8.32148 2.64939 9.01412 1.39978 9.93442 0.595767C10.8547 -0.208246 11.1017 -0.188873 12.022 0.595767C12.5355 1.03168 14.72 3.3081 14.8265 3.80698C14.9234 4.27195 14.9186 4.79504 14.3955 4.95003C13.417 5.24064 12.6372 3.43887 11.8477 3.03202H11.8428Z" fill="currentColor"/>
</svg>
