<?xml version="1.0" encoding="UTF-8"?>
<svg xmlns="http://www.w3.org/2000/svg" viewBox="0 0 129.83 24.92">
  <path d="M22.68,0h4.42v20.24h12.78v4.01h-17.2V0Z"/>
  <path d="M42.25,0h4.42v13.68c0,3.36.12,7.44,5.86,7.44s5.89-4.07,5.89-7.44V0h4.42v13.82c0,4.01-.12,11.1-10.31,11.1s-10.28-7.1-10.28-11.1V0Z"/>
  <rect width="18.32" height="3.88"/>
  <rect y="20.36" width="18.32" height="3.88"/>
  <rect y="9.88" width="13.06" height="3.88"/>
  <path d="M89.69,0h4.42v20.24h12.78v4.01h-17.2V0Z"/>
  <path d="M109.25,0h4.42v13.68c0,3.36.12,7.44,5.86,7.44s5.89-4.07,5.89-7.44V0h4.42v13.82c0,4.01-.12,11.1-10.31,11.1s-10.28-7.1-10.28-11.1V0Z"/>
  <rect x="67" width="18.32" height="3.88"/>
  <rect x="67" y="20.36" width="18.32" height="3.88"/>
  <rect x="67" y="9.88" width="13.06" height="3.88"/>
</svg>