<svg width="391" height="100" viewBox="0 0 391 100" fill="none" xmlns="http://www.w3.org/2000/svg">
<path d="M80 0H20C8.9543 0 0 8.9543 0 20V80C0 91.0457 8.9543 100 20 100H80C91.0457 100 100 91.0457 100 80V20C100 8.9543 91.0457 0 80 0Z" fill="#C8312F"/>
<path d="M25 25H75V40H45V50H75V75H25V60H55V50H25V25Z" fill="white"/>
<path d="M354.297 22.3232L366.469 42.5646H366.901L379.127 22.3232H390.543L373.513 49.9595L390.813 77.5959H379.208L366.901 57.4893H366.469L354.162 77.5959H342.611L360.073 49.9595L342.827 22.3232H354.297Z" fill="white"/>
<path d="M325.035 22.3232H335.048V58.4339C335.048 62.3923 334.112 65.8738 332.241 68.8785C330.388 71.8833 327.779 74.2313 324.414 75.9226C321.049 77.5959 317.118 78.4325 312.62 78.4325C308.104 78.4325 304.164 77.5959 300.799 75.9226C297.434 74.2313 294.826 71.8833 292.972 68.8785C291.119 65.8738 290.192 62.3923 290.192 58.4339V22.3232H300.205V57.5973C300.205 59.9003 300.709 61.9515 301.717 63.7507C302.742 65.55 304.182 66.9624 306.035 67.9879C307.888 68.9955 310.083 69.4993 312.62 69.4993C315.157 69.4993 317.352 68.9955 319.205 67.9879C321.076 66.9624 322.516 65.55 323.523 63.7507C324.531 61.9515 325.035 59.9003 325.035 57.5973V22.3232Z" fill="white"/>
<path d="M240.763 77.5959V22.3232H261.49C265.736 22.3232 269.299 23.0608 272.178 24.5362C275.074 26.0116 277.26 28.0807 278.736 30.7436C280.229 33.3885 280.976 36.4742 280.976 40.0007C280.976 43.5452 280.22 46.6219 278.709 49.2308C277.215 51.8217 275.011 53.8279 272.097 55.2493C269.182 56.6527 265.601 57.3544 261.355 57.3544H246.592V49.0419H260.006C262.489 49.0419 264.522 48.7 266.105 48.0163C267.688 47.3146 268.858 46.2981 269.614 44.9666C270.387 43.6172 270.774 41.9619 270.774 40.0007C270.774 38.0395 270.387 36.3662 269.614 34.9808C268.84 33.5774 267.661 32.5159 266.078 31.7962C264.495 31.0585 262.453 30.6896 259.952 30.6896H250.776V77.5959H240.763ZM269.317 52.5504L283 77.5959H271.827L258.386 52.5504H269.317Z" fill="white"/>
<path d="M229.92 22.3232V77.5959H219.907V22.3232H229.92Z" fill="white"/>
<path d="M163.353 77.5959V22.3232H173.365V45.7223H198.978V22.3232H209.017V77.5959H198.978V54.1158H173.365V77.5959H163.353Z" fill="white"/>
<path d="M144.036 37.5178C143.784 35.1608 142.722 33.3255 140.851 32.0121C138.998 30.6986 136.587 30.0419 133.618 30.0419C131.531 30.0419 129.741 30.3568 128.247 30.9865C126.754 31.6162 125.611 32.4709 124.82 33.5504C124.028 34.63 123.623 35.8625 123.605 37.2479C123.605 38.3994 123.866 39.398 124.388 40.2436C124.928 41.0893 125.656 41.809 126.574 42.4027C127.491 42.9785 128.508 43.4643 129.624 43.8601C130.739 44.2559 131.864 44.5888 132.997 44.8587L138.179 46.1541C140.266 46.6399 142.272 47.2966 144.197 48.1243C146.141 48.9519 147.877 49.9955 149.406 51.255C150.954 52.5144 152.177 54.0348 153.077 55.8161C153.976 57.5973 154.426 59.6844 154.426 62.0774C154.426 65.3161 153.598 68.1679 151.943 70.6328C150.288 73.0798 147.895 74.996 144.764 76.3814C141.652 77.7488 137.882 78.4325 133.456 78.4325C129.156 78.4325 125.422 77.7668 122.256 76.4354C119.107 75.1039 116.642 73.1608 114.861 70.6058C113.098 68.0509 112.144 64.9382 112 61.2678H121.851C121.995 63.193 122.589 64.7943 123.632 66.0717C124.676 67.3492 126.034 68.3028 127.707 68.9325C129.399 69.5623 131.288 69.8771 133.375 69.8771C135.552 69.8771 137.459 69.5533 139.097 68.9055C140.752 68.2398 142.047 67.3222 142.983 66.1527C143.919 64.9652 144.395 63.5798 144.413 61.9965C144.395 60.5571 143.973 59.3696 143.145 58.434C142.317 57.4804 141.157 56.6887 139.663 56.059C138.188 55.4112 136.461 54.8355 134.482 54.3317L128.193 52.7124C123.641 51.5429 120.043 49.7706 117.398 47.3956C114.771 45.0026 113.457 41.8269 113.457 37.8686C113.457 34.612 114.339 31.7602 116.102 29.3132C117.884 26.8662 120.304 24.968 123.362 23.6186C126.421 22.2512 129.884 21.5675 133.753 21.5675C137.675 21.5675 141.112 22.2512 144.063 23.6186C147.031 24.968 149.361 26.8483 151.053 29.2592C152.744 31.6522 153.616 34.4051 153.67 37.5178H144.036Z" fill="white"/>
</svg>
