<svg width="314" height="100" viewBox="0 0 314 100" fill="none" xmlns="http://www.w3.org/2000/svg">
<path d="M134.395 30.665C137.201 30.665 139.651 31.1452 141.744 32.1055C143.849 33.0657 145.487 34.4011 146.656 36.1123C147.826 37.8235 148.429 39.8058 148.466 42.0586H140.803C140.655 40.569 140.021 39.4117 138.9 38.5869C137.78 37.7622 136.26 37.3497 134.34 37.3496C133.035 37.3496 131.933 37.534 131.034 37.9033C130.136 38.2603 129.446 38.7593 128.966 39.3994C128.498 40.0395 128.265 40.7657 128.265 41.5781C128.24 42.255 128.381 42.8459 128.688 43.3506C129.009 43.8553 129.446 44.2928 130 44.6621C130.554 45.0191 131.195 45.3327 131.921 45.6035C132.647 45.862 133.422 46.0839 134.247 46.2686L137.645 47.0811C139.294 47.4504 140.809 47.9431 142.188 48.5586C143.566 49.174 144.76 49.9306 145.77 50.8291C146.779 51.7278 147.561 52.7871 148.115 54.0059C148.681 55.2245 148.971 56.6217 148.983 58.1973C148.971 60.5117 148.379 62.5189 147.21 64.2178C146.053 65.9041 144.379 67.2149 142.188 68.1504C140.009 69.0737 137.38 69.5351 134.303 69.5352C131.25 69.5352 128.59 69.0674 126.325 68.1318C124.072 67.1963 122.312 65.8117 121.044 63.9775C119.788 62.1309 119.13 59.8466 119.068 57.126H126.806C126.892 58.3939 127.254 59.4533 127.895 60.3027C128.547 61.1399 129.416 61.7732 130.499 62.2041C131.595 62.6226 132.831 62.832 134.21 62.832C135.564 62.832 136.74 62.6352 137.737 62.2412C138.747 61.8473 139.528 61.2993 140.082 60.5977C140.636 59.896 140.913 59.0897 140.913 58.1787C140.913 57.3294 140.661 56.6156 140.156 56.0371C139.664 55.4585 138.938 54.9658 137.978 54.5596C137.03 54.1533 135.866 53.7845 134.487 53.4521L130.369 52.418C127.181 51.6424 124.663 50.4299 122.816 48.7803C120.97 47.1307 120.053 44.9078 120.065 42.1133C120.053 39.8237 120.663 37.8234 121.894 36.1123C123.137 34.4011 124.842 33.0657 127.009 32.1055C129.175 31.1453 131.637 30.6651 134.395 30.665ZM249.853 55.0586C249.853 56.4988 250.167 57.7792 250.795 58.8994C251.435 60.0195 252.334 60.8999 253.491 61.54C254.648 62.18 255.997 62.5 257.535 62.5C259.086 62.5 260.434 62.1801 261.579 61.54C262.736 60.8999 263.629 60.0196 264.257 58.8994C264.897 57.7792 265.217 56.4988 265.217 55.0586V31.1816H273.212V55.7412C273.212 58.4988 272.554 60.9123 271.236 62.9805C269.931 65.0485 268.103 66.6612 265.752 67.8184C263.401 68.9631 260.662 69.5351 257.535 69.5352C254.396 69.5352 251.65 68.9632 249.299 67.8184C246.948 66.6612 245.119 65.0485 243.814 62.9805C242.51 60.9123 241.857 58.4988 241.857 55.7412V31.1816H249.853V55.0586ZM162.356 46.7852H178.589V31.1816H186.565V69H178.589V53.3779H162.356V69H154.361V31.1816H162.356V46.7852ZM201.153 69H193.158V31.1816H201.153V69ZM222.652 31.1816C225.508 31.1816 227.946 31.6931 229.965 32.7148C231.996 33.7243 233.542 35.1578 234.601 37.0166C235.672 38.8631 236.207 41.0363 236.207 43.5352C236.207 46.0463 235.665 48.207 234.582 50.0166C233.499 51.8139 231.929 53.1931 229.873 54.1533C229.76 54.2064 229.645 54.2565 229.529 54.3066L237.555 69H228.728L221.564 55.5938H215.728V69H207.732V31.1816H222.652ZM294.914 44.0713H295.21L302.873 31.1816H311.903L300.362 50.0908L312.161 69H302.966L295.21 56.0928H294.914L287.159 69H278L289.836 50.0908L278.222 31.1816H287.288L294.914 44.0713ZM215.728 49.168H221.157C222.684 49.1679 223.952 48.9585 224.961 48.54C225.97 48.1215 226.721 47.4934 227.214 46.6562C227.719 45.8191 227.971 44.7785 227.971 43.5352C227.971 42.2796 227.719 41.221 227.214 40.3594C226.721 39.4976 225.964 38.8455 224.942 38.4023C223.933 37.9469 222.659 37.7188 221.12 37.7188H215.728V49.168Z" fill="#333333"/>
<path d="M80 0H20C8.9543 0 0 8.9543 0 20V80C0 91.0457 8.9543 100 20 100H80C91.0457 100 100 91.0457 100 80V20C100 8.9543 91.0457 0 80 0Z" fill="#C8312F"/>
<path d="M25 25H75V40H45V50H75V75H25V60H55V50H25V25Z" fill="#FFFFFF"/>
</svg>
