<svg viewBox="0 0 512 512" xmlns="http://www.w3.org/2000/svg">
<path d="M 35.85 3.86 C 36.88 3.68 37.92 3.56 38.97 3.52 C 179.31 3.46 319.66 3.61 460.00 3.47 C 465.37 3.62 470.82 2.90 476.14 3.83 C 476.63 21.20 476.11 38.62 476.28 56.00 C 476.28 202.69 476.31 349.37 476.23 496.05 C 476.21 498.70 475.88 501.33 475.67 503.98 C 473.43 503.77 471.11 503.78 469.03 502.86 C 440.27 488.82 411.11 475.62 382.37 461.54 C 371.91 456.11 360.83 451.97 350.34 446.61 C 343.08 442.75 335.40 439.74 328.12 435.92 C 311.37 428.37 295.03 419.96 278.24 412.50 C 271.66 409.61 265.36 406.14 258.81 403.20 C 256.24 401.91 253.18 402.21 250.67 403.50 C 245.93 405.83 241.01 407.80 236.45 410.49 C 212.59 422.11 188.68 433.58 164.65 444.83 C 147.45 453.33 130.07 461.46 112.75 469.72 C 106.68 473.08 100.33 475.89 94.08 478.89 C 86.32 483.09 77.96 486.05 70.19 490.24 C 61.54 494.89 52.55 498.85 43.57 502.81 C 41.04 504.00 38.25 504.56 35.46 504.18 C 35.84 486.46 35.48 468.72 35.60 451.00 C 35.64 305.67 35.40 160.33 35.61 15.00 C 35.65 11.29 35.35 7.55 35.85 3.86 Z" />
</svg>